<?xml version="1.0" encoding="utf-8"?>
<!-- Generator: Adobe Illustrator 27.5.0, SVG Export Plug-In . SVG Version: 6.00 Build 0)  -->
<svg version="1.1" xmlns="http://www.w3.org/2000/svg" xmlns:xlink="http://www.w3.org/1999/xlink" x="0px" y="0px"
	 viewBox="0 0 500 500" style="enable-background:new 0 0 500 500;" xml:space="preserve">
<g id="Background_Complete">
	<g>
		<rect y="382.398" style="fill:#EBEBEB;" width="500" height="0.25"/>
		<rect x="102.016" y="398.494" style="fill:#EBEBEB;" width="33.122" height="0.25"/>
		<rect x="171.14" y="390.925" style="fill:#EBEBEB;" width="43.554" height="0.25"/>
		<rect x="52.459" y="389.208" style="fill:#EBEBEB;" width="48.556" height="0.25"/>
		<rect x="247.605" y="392.592" style="fill:#EBEBEB;" width="34.29" height="0.25"/>
		<rect x="442.463" y="392.592" style="fill:#EBEBEB;" width="7.439" height="0.25"/>
		<rect x="290.799" y="392.592" style="fill:#EBEBEB;" width="48.567" height="0.25"/>
		<rect x="326.618" y="396.814" style="fill:#EBEBEB;" width="93.676" height="0.25"/>
		<path style="fill:#EBEBEB;" d="M237.014,337.8H43.915c-3.147,0-5.708-2.561-5.708-5.708V60.66c0-3.147,2.561-5.708,5.708-5.708
			h193.099c3.146,0,5.707,2.561,5.707,5.708v271.432C242.721,335.239,240.16,337.8,237.014,337.8z M43.915,55.203
			c-3.01,0-5.458,2.448-5.458,5.458v271.432c0,3.01,2.448,5.458,5.458,5.458h193.099c3.009,0,5.457-2.448,5.457-5.458V60.66
			c0-3.009-2.448-5.458-5.457-5.458H43.915z"/>
		<path style="fill:#EBEBEB;" d="M453.31,337.8H260.212c-3.147,0-5.707-2.561-5.707-5.708V60.66c0-3.147,2.561-5.708,5.707-5.708
			H453.31c3.148,0,5.708,2.561,5.708,5.708v271.432C459.019,335.239,456.458,337.8,453.31,337.8z M260.212,55.203
			c-3.009,0-5.457,2.448-5.457,5.458v271.432c0,3.01,2.448,5.458,5.457,5.458H453.31c3.01,0,5.458-2.448,5.458-5.458V60.66
			c0-3.009-2.448-5.458-5.458-5.458H260.212z"/>
	</g>
	<g>
		<g>
			<g>
				<rect x="71.445" y="77.998" style="fill:#FAFAFA;" width="200.954" height="144.26"/>
				<polygon style="fill:#FFFFFF;" points="125.329,222.258 159.792,77.998 198.15,77.998 163.687,222.258 				"/>
				<polygon style="fill:#FFFFFF;" points="200.249,222.258 234.712,77.998 248.703,77.998 214.24,222.258 				"/>
				<polygon style="fill:#FFFFFF;" points="112.092,222.258 146.555,77.998 151.808,77.998 117.345,222.258 				"/>
				<g>
					<path style="fill:#E0E0E0;" d="M281.981,73.037H61.864c-0.491,0-0.893,0.402-0.893,0.893l0,0c0,0.491,0.402,0.893,0.893,0.893
						h220.117c0.491,0,0.893-0.402,0.893-0.893l0,0C282.874,73.439,282.472,73.037,281.981,73.037z"/>
					
						<rect x="168.525" y="77.687" transform="matrix(-1 -1.224647e-16 1.224647e-16 -1 345.6229 300.254)" style="fill:#F0F0F0;" width="8.574" height="144.88"/>
					
						<rect x="177.098" y="77.687" transform="matrix(-1 -1.224647e-16 1.224647e-16 -1 355.154 300.254)" style="fill:#E0E0E0;" width="0.957" height="144.88"/>
					
						<rect x="170.731" y="48.262" transform="matrix(6.123234e-17 -1 1 6.123234e-17 21.7941 322.05)" style="fill:#F0F0F0;" width="2.381" height="203.731"/>
					<path style="fill:#F0F0F0;" d="M273.788,221.266L273.788,221.266V78.99v-2.381h-2.381H72.438h-2.381v2.381v142.276h0v2.382h0
						l0,0h2.381l0,0h198.969l0,0h2.381l0,0l0,0V221.266z M72.438,221.266V78.99h198.969v142.276H72.438z"/>
					
						<rect x="273.788" y="76.609" transform="matrix(-1 -1.224647e-16 1.224647e-16 -1 548.7658 300.2558)" style="fill:#E0E0E0;" width="1.191" height="147.038"/>
				</g>
			</g>
			<g>
				<polygon style="opacity:0.5;fill:#EBEBEB;" points="238.34,70.854 238.34,310.455 288.567,310.455 279.356,70.854 				"/>
				<polygon style="opacity:0.5;fill:#EBEBEB;" points="203.483,70.854 203.483,310.455 253.71,310.455 244.498,70.854 				"/>
				<polygon style="opacity:0.5;fill:#EBEBEB;" points="87.369,70.855 87.369,310.455 56.468,310.455 62.135,70.855 				"/>
				<polygon style="opacity:0.5;fill:#EBEBEB;" points="108.815,70.855 108.815,310.455 77.913,310.455 83.581,70.855 				"/>
			</g>
		</g>
		<g>
			<g>
				
					<rect x="125.407" y="261.461" transform="matrix(-1 -1.224647e-16 1.224647e-16 -1 286.6395 643.8595)" style="fill:#E6E6E6;" width="35.826" height="120.938"/>
				<polygon style="fill:#F0F0F0;" points="131.369,382.399 125.407,382.399 125.407,371.516 137.62,371.516 				"/>
				
					<rect x="271.218" y="261.461" transform="matrix(-1 -1.224647e-16 1.224647e-16 -1 578.2617 643.8595)" style="fill:#E6E6E6;" width="35.826" height="120.938"/>
				
					<rect x="125.407" y="261.461" transform="matrix(-1 -1.224647e-16 1.224647e-16 -1 401.8281 639.6806)" style="fill:#F0F0F0;" width="151.014" height="116.759"/>
				
					<rect x="130.032" y="266.636" transform="matrix(-1 -1.224647e-16 1.224647e-16 -1 401.828 565.2915)" style="fill:#E6E6E6;" width="141.764" height="32.02"/>
				<path style="fill:#F0F0F0;" d="M194.217,276.586h13.392c5.817,0,11.378-3.95,15.379-10.924l0,0h-44.151l0,0
					C182.839,272.636,188.4,276.586,194.217,276.586z"/>
				<polygon style="fill:#F0F0F0;" points="270.459,382.399 276.421,382.399 276.421,371.516 264.208,371.516 				"/>
				
					<rect x="130.032" y="303.831" transform="matrix(-1 -1.224647e-16 1.224647e-16 -1 401.828 639.6807)" style="fill:#E6E6E6;" width="141.764" height="32.02"/>
				<path style="fill:#F0F0F0;" d="M194.217,313.781h13.392c5.817,0,11.378-3.95,15.379-10.924l0,0h-44.151l0,0
					C182.839,309.831,188.4,313.781,194.217,313.781z"/>
				
					<rect x="130.032" y="341.025" transform="matrix(-1 -1.224647e-16 1.224647e-16 -1 401.828 714.0696)" style="fill:#E6E6E6;" width="141.764" height="32.02"/>
				<path style="fill:#F0F0F0;" d="M194.217,350.975h13.392c5.817,0,11.378-3.95,15.379-10.924l0,0h-44.151l0,0
					C182.839,347.025,188.4,350.975,194.217,350.975z"/>
			</g>
		</g>
		<g>
			<g>
				<path style="fill:#FFFFFF;" d="M220.243,239.475c-2.311-23.945-3.92-62.8-2.671-75.795c0.043-0.451,0.283-0.857,0.649-1.125l0,0
					c1.077-0.785,2.586,0.007,2.541,1.339c-0.22,6.439-0.473,22.533,0.898,50.298c0.682,13.821,1.666,23.286,0.991,25.283H220.243z"
					/>
				<path style="fill:#FFFFFF;" d="M213.618,187.974c-5.281-6.794-16.197-12.165-27.39-12.987
					c-4.395-0.322,13.257,8.44,20.521,17.188c5.643,6.796,11.952,17.987,14.063,24.094
					C219.577,203.662,218.899,194.768,213.618,187.974z"/>
				<path style="fill:#FFFFFF;" d="M224.671,186.51c5.464-7.61,18.078-13.462,31.726-14.124c5.358-0.26-15.027,9.29-22.635,19.078
					c-5.91,7.603-11.969,20.198-13.637,27.103C219.726,204.236,219.207,194.121,224.671,186.51z"/>
				<path style="fill:#FFFFFF;" d="M213.979,165.59c-4.168-5.671-13.372-10.324-23.127-11.276
					c-3.83-0.374,11.047,7.214,16.821,14.527c4.485,5.681,9.255,14.962,10.691,19.993
					C218.137,178.527,218.147,171.261,213.979,165.59z"/>
				<path style="fill:#FFFFFF;" d="M222.379,166.751c4.627-6.444,15.308-11.4,26.864-11.96c4.537-0.22-12.725,7.867-19.166,16.155
					c-5.004,6.438-10.135,17.103-11.547,22.95C218.192,181.761,217.752,173.195,222.379,166.751z"/>
				<path style="fill:#FFFFFF;" d="M216.78,213.55c-3.011-4.276-9.778-7.872-17.011-8.727c-2.84-0.336,8.098,5.526,12.277,11.046
					c3.246,4.288,6.65,11.255,7.64,15.014C219.673,223.224,219.79,217.826,216.78,213.55z"/>
				<path style="fill:#FFFFFF;" d="M222.252,211.143c2.614-4.242,9.087-7.819,16.302-8.68c2.833-0.338-7.625,5.491-11.294,10.968
					c-2.85,4.255-5.594,11.163-6.22,14.889C220.292,220.732,219.638,215.385,222.252,211.143z"/>
			</g>
			<g>
				<path style="fill:#E6E6E6;" d="M221.218,261.461L221.218,261.461c-5.759,0-10.518-1.203-10.849-6.953l-0.96-16.632h23.618
					l-0.96,16.632C231.737,260.258,226.978,261.461,221.218,261.461z"/>
				<path style="fill:#F0F0F0;" d="M232.893,241.656h-23.348c-0.947,0-1.743-0.713-1.847-1.654l-0.354-3.205
					c-0.121-1.1,0.74-2.061,1.846-2.061h24.056c1.107,0,1.968,0.962,1.846,2.061l-0.354,3.205
					C234.635,240.944,233.84,241.656,232.893,241.656z"/>
			</g>
		</g>
	</g>
</g>
<g id="Background_Simple" style="display:none;">
	<g style="display:inline;">
		<path style="fill:#407BFF;" d="M263.835,318.435c-79.699-23.581-175.86-2.224-195.146-115.127
			C45.675,68.578,175.59,23.983,275.784,57.537c54.135,18.13,92.931,119.44,111.587,185.52
			c9.409,33.326,5.522,103.186-18.798,117.345C330.416,382.616,303.256,330.099,263.835,318.435z"/>
		<path style="opacity:0.9;fill:#FFFFFF;" d="M263.835,318.435c-79.699-23.581-175.86-2.224-195.146-115.127
			C45.675,68.578,175.59,23.983,275.784,57.537c54.135,18.13,92.931,119.44,111.587,185.52
			c9.409,33.326,5.522,103.186-18.798,117.345C330.416,382.616,303.256,330.099,263.835,318.435z"/>
	</g>
</g>
<g id="Shadow_1_">
	<ellipse id="_x3C_Path_x3E__202_" style="fill:#F5F5F5;" cx="250" cy="416.238" rx="193.889" ry="11.323"/>
</g>
<g id="Character_1">
	<g>
		<g>
			<rect x="298.159" y="103.595" style="fill:#407BFF;" width="118.775" height="312.642"/>
			<rect x="298.159" y="103.595" style="opacity:0.8;fill:#FFFFFF;" width="118.775" height="312.642"/>
		</g>
		<g style="opacity:0.4;">
			<path style="fill:#FFFFFF;" d="M419.767,144.142c-4.342,0.423-6.23,1.063-8.045-1.454c-1.814-2.516-8.333-3.046-10.524-0.297
				c-2.191,2.749-2.993,4.554-7.887,3.835c-4.894-0.719-6.545,0.573-7.301,2.6c-0.756,2.027-12.014,2.762-8.776,5.025l41.764-6.154
				C418.997,147.698,424.109,143.719,419.767,144.142z"/>
			<path style="fill:#FFFFFF;" d="M382.263,122.317c-1.347-1.403-5.294-1.355-8.867,0.417c-3.572,1.772-0.975-6.414-7.629-4.125
				c-9.505,3.269-7.001,8.484-10.932,8.55c-3.93,0.067-15.518,3.147-9.474,5.044l34.965-5.152
				C380.326,127.051,383.61,123.72,382.263,122.317z"/>
			<path style="fill:#FFFFFF;" d="M336.363,177.233c-0.956-0.995-3.756-0.962-6.291,0.296c-2.535,1.257-0.692-4.551-5.413-2.927
				c-6.744,2.319-4.968,6.019-7.756,6.066c-2.789,0.047-11.01,2.233-6.722,3.579l24.808-3.655
				C334.989,180.592,337.319,178.229,336.363,177.233z"/>
		</g>
		<path style="opacity:0.07;fill:#407BFF;" d="M403.083,353.982v11.817c0,0.992-0.804,1.796-1.796,1.796h-3.231
			c-0.992,0-1.796,0.804-1.796,1.796v2.259c0,0.992-0.804,1.796-1.796,1.796h-12.047c-0.992,0-1.796-0.804-1.796-1.796v-17.668
			c0-0.992-0.804-1.796-1.796-1.796h-1.798c-0.992,0-1.796-0.804-1.796-1.796v-20.287c0-0.992-0.804-1.796-1.796-1.796h-3.537
			c-0.992,0-1.796,0.804-1.796,1.796v12.606c0,0.751-0.68,1.36-1.518,1.36l0,0c-0.839,0-1.518-0.609-1.518-1.36v-37.543
			c0-0.992-0.804-1.796-1.796-1.796h-3.537c-0.992,0-1.796,0.804-1.796,1.796v37.107c0,0.992-0.804,1.796-1.796,1.796h-0.434
			c-0.992,0-1.796-0.804-1.796-1.796v-19.188c0-0.279-0.065-0.553-0.189-0.803l-10.674-21.365c-0.125-0.249-0.189-0.524-0.189-0.803
			v-26.943c0-0.992-0.804-1.796-1.796-1.796h-10.395c-0.992,0-1.796,0.804-1.796,1.796v69.102c0,0.992-0.804,1.796-1.796,1.796
			h-0.723c-0.992,0-1.796-0.804-1.796-1.796v-26.286c0-0.992-0.804-1.796-1.796-1.796h-10.395c-0.992,0-1.796,0.804-1.796,1.796
			v26.286c0,0.992-0.804,1.796-1.796,1.796h-1.405c-0.992,0-1.796,0.804-1.796,1.796v4.525c0,0.992-0.804,1.796-1.796,1.796h-0.502
			c-0.992,0-1.796,0.804-1.796,1.796v35.926c0,0.992,0.804,1.796,1.796,1.796h105.14c0.992,0,1.796-0.804,1.796-1.796v-35.926
			c0-0.992-0.804-1.796-1.796-1.796h-3.537C403.887,352.186,403.083,352.99,403.083,353.982z"/>
		<rect x="298.159" y="395.007" style="opacity:0.07;fill:#407BFF;" width="118.442" height="10.485"/>
		<g>
			<polygon style="fill:#263238;" points="428.318,94.918 428.318,416.237 415.302,416.237 415.302,109.257 310.934,109.257 
				310.934,416.237 297.918,416.237 297.918,94.918 			"/>
			<polygon style="fill:#407BFF;" points="422.533,94.918 422.533,416.237 409.517,416.237 409.517,109.257 305.149,109.257 
				305.149,416.237 292.133,416.237 292.133,94.918 			"/>
		</g>
		<g>
			<g>
				<path style="fill:#407BFF;" d="M324.998,133.537c-4.463,0.359-10.295,3.43,2.738,6.95c13.034,3.52,14.806-0.284,14.806-0.284
					S336.953,132.575,324.998,133.537z"/>
				<path style="opacity:0.4;" d="M324.998,133.537c-4.463,0.359-10.295,3.43,2.738,6.95c13.034,3.52,14.806-0.284,14.806-0.284
					S336.953,132.575,324.998,133.537z"/>
			</g>
			
				<ellipse transform="matrix(0.9886 -0.1506 0.1506 0.9886 -20.0395 54.1495)" style="fill:#263238;" cx="347.451" cy="159.367" rx="5.378" ry="6.536"/>
			
				<ellipse transform="matrix(0.9886 -0.1506 0.1506 0.9886 -17.9309 51.3792)" style="fill:#263238;" cx="330.217" cy="144.061" rx="5.378" ry="6.536"/>
			<path style="fill:#263238;" d="M409.516,345.61v27.8c-14.45-11.41-29.23-24.18-32.3-30.83c-11.12-24.16-32.46-87.51-32.46-87.51
				l33.6-13.74c0,0,0.05,0.23,0.15,0.68c0.88,4.09,5.59,26.47,11.12,60.75c1.48,9.15,3.01,19.16,4.55,29.89
				C396.836,334.39,402.586,339.34,409.516,345.61z"/>
			<g>
				<path style="opacity:0.2;" d="M391.062,311.799c-1.749-11.227-3.444-21.358-4.997-30.218l-7.672-5.897
					C378.394,275.684,381.855,293.896,391.062,311.799z"/>
			</g>
			<path style="fill:#263238;" d="M409.516,276.68v57.92c-2.01-3.34-3.87-6.35-5.51-8.9c-3.8-5.92-8.92-14.12-14.38-22.94
				c-14.91-24.05-32.34-52.77-32.34-52.77l21.22-7.98l9.93-3.74C397.046,249.58,402.755,261.36,409.516,276.68z"/>
			<path style="fill:#B55B52;" d="M334.408,198.065c-0.7,0.508-1.225,0.876-1.824,1.28c-0.582,0.396-1.173,0.756-1.759,1.128
				c-1.175,0.729-2.359,1.428-3.553,2.107c-2.397,1.341-4.855,2.566-7.381,3.663c-1.253,0.564-2.541,1.068-3.818,1.585
				c-1.307,0.463-2.591,0.963-3.924,1.369c-2.622,0.9-5.358,1.547-8.096,2.143l-0.396,0.086c-1.531,0.333-3.069-0.028-4.262-0.856
				c-2.821-1.975-5.11-4.158-7.227-6.391c-2.124-2.228-4.009-4.569-5.817-6.929c-1.788-2.378-3.463-4.803-5.04-7.282
				c-1.574-2.497-3.051-4.975-4.421-7.658c-0.828-1.62-0.185-3.605,1.436-4.433c1.344-0.686,2.939-0.361,3.915,0.694l0.065,0.071
				c1.863,2.014,3.782,4.12,5.7,6.132c1.922,2.023,3.852,4.021,5.822,5.932c1.948,1.929,3.96,3.761,5.967,5.465
				c2.003,1.704,4.086,3.224,6.043,4.368l-4.657-0.77c2.237-0.729,4.461-1.493,6.661-2.413c2.197-0.906,4.375-1.895,6.523-2.967
				c2.143-1.078,4.275-2.197,6.359-3.397c1.046-0.592,2.082-1.199,3.097-1.824l1.501-0.945l1.379-0.879l0.281-0.179
				c3.072-1.96,7.151-1.058,9.111,2.014C337.978,192.131,337.201,196.028,334.408,198.065z"/>
			<g>
				<path style="fill:#407BFF;" d="M336.852,181.834c-10.975,4.395-22.77,11.432-22.77,11.432
					c2.332,6.734,5.566,14.739,10.802,19.427c0,0,5.064-2.996,13.231-10.018C347.241,194.83,346.394,178.013,336.852,181.834z"/>
			</g>
			<path style="fill:#FFFFFF;" d="M343.266,254.905c1.745,6.038,3.013,12.895,5.725,14.221c2.712,1.326,8.918-7.773,11.268-11.208
				c6.387,0.482,25.068-2.049,30.792-5.724c5.725-3.676,3.917-8.195-0.663-14.522C377.855,236.406,350.678,250.325,343.266,254.905z
				"/>
			<path style="fill:#407BFF;" d="M363.431,174.118c-8.73,1.504-18.434,4.165-26.508,7.43c-9.228,3.731-14.029,11.24-12.344,21.061
				c2.026,11.802,11.037,39.276,19.471,57.991c1.469,3.22,45.773-16.904,47.906-21.332c-3.486-12.251-12.568-23.923-16.08-53.175
				C375.152,180.072,369.342,173.1,363.431,174.118z"/>
			<path style="fill:#FFFFFF;" d="M354.6,197.279c2.929-1.505,7.159-2.752,8.947-3.245c0.478-0.132,0.973,0.121,1.146,0.586
				c0.342,0.92,0.936,2.47,1.54,3.836c0.231,0.522-0.042,1.125-0.588,1.292c-2.343,0.714-6.168,2.111-8.603,3.168
				c-0.432,0.188-0.926,0.021-1.186-0.372c-0.987-1.493-1.505-3.247-1.734-4.208C354.022,197.914,354.214,197.477,354.6,197.279z"/>
			<path style="fill:#FFFFFF;" d="M342.627,193.728c0.148,0.829-0.089,1.565-0.53,1.643c-0.44,0.078-0.917-0.53-1.065-1.359
				c-0.148-0.829,0.089-1.565,0.529-1.643C342.003,192.29,342.479,192.899,342.627,193.728z"/>
			<path style="fill:#B55B52;" d="M376.67,182.128c2.427,1.417,4.659,2.853,6.926,4.359c2.247,1.507,4.473,3.043,6.654,4.65
				c2.193,1.587,4.351,3.233,6.475,4.93c2.142,1.671,4.219,3.447,6.287,5.233l0.361,0.312c1.167,1.007,1.798,2.423,1.867,3.85
				c0.143,3.208-0.289,6.198-0.951,8.997c-0.661,2.803-1.625,5.422-2.697,7.93c-1.103,2.499-2.345,4.882-3.725,7.163
				c-1.403,2.295-2.838,4.428-4.609,6.589c-1.153,1.407-3.229,1.613-4.636,0.46c-1.133-0.928-1.487-2.454-0.982-3.748l0.073-0.183
				c0.84-2.142,1.738-4.477,2.488-6.73c0.765-2.272,1.453-4.545,2-6.801c0.571-2.248,0.965-4.491,1.204-6.641
				c0.23-2.151,0.208-4.217-0.045-6.032l2.228,4.162c-4.188-2.987-8.477-5.886-12.804-8.752l-12.989-8.473l-0.064-0.042
				c-3.055-1.992-3.915-6.084-1.923-9.138C369.738,181.264,373.651,180.372,376.67,182.128z"/>
			<g>
				<path style="fill:#407BFF;" d="M369.607,175.175c10.385,5.65,21.276,14.019,21.276,14.019
					c-3.105,6.415-7.816,11.388-13.565,15.431c0,0-4.116-0.97-11.404-8.899C357.768,186.865,360.578,170.263,369.607,175.175z"/>
			</g>
			<path style="fill:#B55B52;" d="M388.466,230.87l-5.771,6.597l9.431,4.721c0,0,4.51-6.636,1.43-9.72L388.466,230.87z"/>
			<path style="fill:#B55B52;" d="M383.167,246.742l3.569,1.086c1.421,0.432,2.922-0.251,3.547-1.615l1.844-4.025l-9.431-4.721
				l-1.596,5.362C380.608,244.482,381.54,246.247,383.167,246.742z"/>
			<path style="fill:#FFFFFF;" d="M341.984,188.417c0,0,4.803,3.09,5.261,7.145c11.474-8.448,13.3-16.74,10.8-20.396
				c-1.931-0.709-3.484,0.001-3.484,0.001S351.056,182.39,341.984,188.417z"/>
			<path style="fill:#FFFFFF;" d="M341.984,188.417c0,0-3.332,3.88-3.694,7.917c-7.339-3.306-4.676-11.912-2.701-14.206
				c1.456-1.246,4.146-2.072,4.146-2.072S337.112,183.365,341.984,188.417z"/>
			<path style="fill:#B55B52;" d="M347.902,155.597c0.563,5.653,2.306,15.206,6.444,19.361c1.026,1.031,1.23,2.635,0.463,3.871
				c-2.248,3.619-5.456,7.341-11.298,9.289c-5.394,1.798-6.874-0.762-6.802-3.502c0.037-1.399,0.762-2.704,1.879-3.547
				c4.678-3.531,3.047-8.074,0.638-12.104L347.902,155.597z"/>
			<path style="opacity:0.2;" d="M344.366,161.05l-5.137,7.908c0.624,1.036,1.189,2.107,1.602,3.188
				c2.494-1.144,5.215-5.049,4.67-7.848C345.229,162.902,344.779,161.616,344.366,161.05z"/>
			<path style="fill:#B55B52;" d="M349.31,146.227c0.751,8.664,1.626,13.689-2,18.813c-5.454,7.708-16.494,5.546-19.784-2.673
				c-2.962-7.398-3.693-20.323,4.093-25.136C339.29,132.489,348.558,137.564,349.31,146.227z"/>
			<path style="fill:#263238;" d="M334.297,134.487c-4.865,0.486-7.19,3.369-5.914,4.813c-4.292,0.766-0.393,5.98,4.242,3.851
				c0.4,1.668,9.603,1.106,9.691-1.398c2.093,5.424,4.714,5.072,4.714,5.072s-2.718,6.002,1.185,6.781
				c-0.003,3.394,2.444,6.363,4.954,5.85c2.828-0.578,1.927-5.366,1.927-5.366c5.163-2.288,1.693-7.484,1.693-7.484
				C356.748,140.853,344.767,128.127,334.297,134.487z"/>
			<path style="fill:#FFFFFF;" d="M328.002,157.159c-1.04,0-2.043-0.645-2.84-1.832c-0.808-1.204-1.315-2.835-1.427-4.593
				c-0.112-1.758,0.184-3.44,0.833-4.737c0.673-1.344,1.648-2.123,2.745-2.192c1.094-0.076,2.162,0.578,3,1.827
				c0.808,1.204,1.315,2.835,1.427,4.593l0,0c0.234,3.68-1.371,6.789-3.577,6.929C328.109,157.157,328.056,157.159,328.002,157.159z
				 M327.472,144.342c-0.041,0-0.083,0.002-0.124,0.004c-0.897,0.057-1.711,0.73-2.294,1.895c-0.607,1.212-0.883,2.796-0.777,4.46
				c0.106,1.663,0.58,3.199,1.336,4.325c0.726,1.081,1.621,1.638,2.516,1.588c1.909-0.122,3.286-2.972,3.071-6.354
				c-0.106-1.664-0.58-3.199-1.336-4.325C329.171,144.903,328.326,144.342,327.472,144.342z"/>
			<path style="fill:#FFFFFF;" d="M337.555,156.549c-1.192,0-2.338-0.628-3.249-1.787c-0.943-1.199-1.524-2.831-1.636-4.597
				c-0.234-3.68,1.673-6.808,4.252-6.972c2.579-0.167,4.868,2.696,5.102,6.377c0.112,1.765-0.257,3.458-1.04,4.767
				c-0.803,1.341-1.943,2.124-3.212,2.205C337.699,156.547,337.627,156.549,337.555,156.549z M337.136,143.729
				c-0.06,0-0.12,0.001-0.18,0.005c-2.281,0.145-3.961,3.015-3.746,6.397c0.105,1.656,0.646,3.182,1.522,4.296
				c0.853,1.084,1.922,1.645,3.005,1.574c1.086-0.069,2.073-0.759,2.781-1.942c0.727-1.216,1.07-2.798,0.965-4.454
				C341.273,146.311,339.342,143.729,337.136,143.729z"/>
			<path style="fill:#FFFFFF;" d="M331.471,150.512c-0.077,0-0.154-0.033-0.208-0.097c-0.096-0.114-0.083-0.283,0.03-0.379
				c0.031-0.025,0.752-0.627,1.766-0.131c0.134,0.066,0.19,0.229,0.124,0.363c-0.066,0.134-0.229,0.188-0.363,0.124
				c-0.686-0.335-1.156,0.042-1.176,0.058C331.593,150.491,331.532,150.512,331.471,150.512z"/>
			<path style="fill:#FFFFFF;" d="M349.56,151.246c-0.02,0-0.04-0.002-0.06-0.006c-5.819-1.314-7.656-0.97-7.675-0.965
				c-0.146,0.025-0.29-0.064-0.32-0.21c-0.03-0.146,0.062-0.289,0.208-0.32c0.075-0.016,1.922-0.385,7.907,0.967
				c0.146,0.033,0.238,0.178,0.205,0.324C349.796,151.161,349.685,151.246,349.56,151.246z"/>
			<path style="fill:#B55B52;" d="M353.614,154.116c-0.861,2.172-2.483,3.75-4.052,4.49c-2.36,1.114-3.678-1.177-3.138-3.872
				c0.486-2.426,2.299-5.929,4.724-5.9C353.535,148.863,354.598,151.633,353.614,154.116z"/>
			<path style="fill:#263238;" d="M336.806,150.507c0.052,0.704-0.276,1.309-0.731,1.352c-0.455,0.043-0.866-0.494-0.918-1.198
				c-0.052-0.704,0.276-1.309,0.731-1.352C336.343,149.267,336.754,149.803,336.806,150.507z"/>
			<path style="fill:#263238;" d="M328.647,151.128c0.052,0.704-0.276,1.309-0.731,1.352c-0.455,0.043-0.866-0.494-0.918-1.198
				c-0.052-0.704,0.276-1.309,0.731-1.352C328.184,149.887,328.595,150.424,328.647,151.128z"/>
			<path style="fill:#A02724;" d="M332.088,150.719c0,0-2.182,3.617-3.242,6.158c1.256,1.121,3.693,0.301,3.693,0.301
				L332.088,150.719z"/>
			<path style="fill:#263238;" d="M333.356,160.812c2.668-0.274,3.992-2.101,4.052-2.186c0.066-0.094,0.046-0.223-0.045-0.289
				c-0.091-0.066-0.219-0.043-0.286,0.051c-0.015,0.021-1.561,2.142-4.61,2.04c-0.113-0.003-0.209,0.086-0.215,0.201
				c-0.006,0.115,0.081,0.211,0.194,0.215C332.765,160.853,333.068,160.842,333.356,160.812z"/>
			<path style="fill:#263238;" d="M340.036,147.876c0.067-0.016,0.131-0.048,0.186-0.098c0.17-0.155,0.187-0.417,0.037-0.587
				c-1.499-1.697-3.376-1.408-3.455-1.395c-0.225,0.037-0.38,0.251-0.347,0.477c0.032,0.226,0.239,0.379,0.463,0.343l0,0
				c0.062-0.01,1.527-0.219,2.724,1.135C339.745,147.866,339.896,147.908,340.036,147.876z"/>
			<path style="fill:#263238;" d="M325.281,148.353c0.132,0.012,0.268-0.041,0.359-0.154c1.154-1.434,2.622-1.321,2.684-1.316
				c0.224,0.02,0.426-0.148,0.451-0.376c0.025-0.228-0.135-0.43-0.359-0.452c-0.081-0.006-1.96-0.172-3.406,1.624
				c-0.144,0.179-0.12,0.441,0.054,0.585C325.128,148.317,325.204,148.346,325.281,148.353z"/>
			<g>
				<path style="fill:#B55B52;" d="M281.529,184.924l-8.623,1.568l0.786-10.517c0,0,8.01-0.466,9.076,3.76L281.529,184.924z"/>
				<path style="fill:#B55B52;" d="M265.186,181.33l0.899-3.62c0.358-1.441,1.715-2.379,3.206-2.216l4.401,0.482l-0.786,10.517
					l-5.421-1.381C265.813,184.686,264.776,182.98,265.186,181.33z"/>
			</g>
			<path style="fill:#407BFF;" d="M331.504,134.458c1.721-4.829,4.641-7.942,7.311-8.324c1.793-0.257,9.242,0.969,12.477,2.673
				c3.235,1.704,7.905,7.766,8.143,9.978c0.238,2.212-2.647,7.821-2.647,7.821S343.822,138.193,331.504,134.458z"/>
			<path style="fill:#FFFFFF;" d="M335.714,128.044c3.341,0.74,7.586,2.027,9.276,2.698c0.453,0.18,0.6,0.566,0.343,0.896
				c-0.509,0.653-1.533,2.021-2.22,3.04c-0.262,0.389-0.953,0.559-1.483,0.363c-2.271-0.845-6.168-2.105-8.786-2.821
				c-0.464-0.127-0.683-0.469-0.548-0.806c0.516-1.282,1.582-2.456,2.206-3.071C334.777,128.072,335.274,127.946,335.714,128.044z"
				/>
			<path style="fill:#407BFF;" d="M324.579,133.583c9.621,0.007,13.133,6.326,18.107,8.177c4.974,1.851,13.173,0.915,13.173,0.915
				S339.163,131.78,324.579,133.583z"/>
		</g>
		<g>
			
				<rect x="225.543" y="148.446" transform="matrix(-0.9923 0.1236 -0.1236 -0.9923 544.5016 294.4961)" style="fill:#407BFF;" width="75.143" height="31.389"/>
			
				<rect x="251.758" y="146.82" transform="matrix(-0.9923 0.1236 -0.1236 -0.9923 570.3145 289.6411)" style="opacity:0.4;fill:#FFFFFF;" width="48.827" height="31.389"/>
			<path style="opacity:0.3;fill:#FFFFFF;" d="M289.459,173.852l-1.098-8.81l9.544-1.189l1.098,8.81L289.459,173.852z
				 M289.423,165.869l0.862,6.922l7.656-0.954l-0.862-6.922L289.423,165.869z"/>
			<path style="opacity:0.3;fill:#FFFFFF;" d="M278.106,175.266l-1.098-8.809l9.544-1.189l1.098,8.81L278.106,175.266z
				 M278.07,167.283l0.862,6.921l7.656-0.954l-0.862-6.922L278.07,167.283z"/>
			
				<rect x="269.634" y="146.905" transform="matrix(-0.9923 0.1236 -0.1236 -0.9923 566.1807 267.6648)" style="fill:#FFFFFF;" width="10.304" height="8.983"/>
			
				<rect x="234.57" y="151.55" transform="matrix(-0.9923 0.1236 -0.1236 -0.9923 492.4745 281.5264)" style="fill:#FFFFFF;" width="5.866" height="8.983"/>
		</g>
		<path style="fill:#FFFFFF;" d="M381.015,164.412c-0.012,0-0.023-0.001-0.035-0.002c-4.563-0.586-11.779-3.536-15.138-6.188
			c-0.118-0.093-0.138-0.263-0.045-0.381c0.092-0.118,0.263-0.137,0.381-0.045c3.298,2.604,10.386,5.5,14.871,6.076
			c0.149,0.019,0.254,0.155,0.235,0.304C381.266,164.312,381.149,164.412,381.015,164.412z"/>
		<path style="fill:#FFFFFF;" d="M314.414,231.185c-0.034,0-0.069-0.006-0.102-0.02c-4.261-1.735-10.479-6.434-13.048-9.859
			c-0.09-0.12-0.066-0.29,0.054-0.379c0.119-0.09,0.289-0.066,0.38,0.054c2.521,3.361,8.63,7.977,12.818,9.682
			c0.139,0.056,0.205,0.214,0.149,0.353C314.622,231.122,314.52,231.185,314.414,231.185z"/>
		<path style="fill:#FFFFFF;" d="M389.524,172.176c-4.755,0-10.313-1.53-12.656-2.248c-0.143-0.044-0.224-0.195-0.18-0.339
			c0.044-0.143,0.195-0.225,0.339-0.18c2.589,0.792,9.143,2.591,14.088,2.159c0.145-0.017,0.281,0.097,0.294,0.246
			c0.013,0.149-0.097,0.281-0.247,0.294C390.631,172.155,390.083,172.176,389.524,172.176z"/>
	</g>
</g>
<g id="Character_2">
	<g>
		<path style="fill:#263238;" d="M150.431,129.107c-8.327,9.643,3.445,17.516,5.752,25.635c2.307,8.119,0.941,25.605,11.264,35.614
			c16.08,15.592,34.63,6.802,37.797-2.312c3.135-9.025,2.032-23.441-11.67-33.301c-8.177-5.885-1.781-25.336-9.309-27.658
			C185.794,115.355,148.845,106.839,150.431,129.107z"/>
		<path style="fill:#263238;" d="M204.953,187.264c-0.086,0-0.17-0.042-0.22-0.12c-0.078-0.121-0.043-0.283,0.078-0.361
			c2.67-1.723,4.101-4.782,4.029-8.615c-0.118-6.257-4.566-15.139-14.239-20.876c-4.369-2.591-4.825-10.321-5.228-17.14
			c-0.317-5.375-0.617-10.451-2.711-12.196c-0.637-0.531-1.412-0.731-2.366-0.614c-0.145,0.019-0.273-0.084-0.291-0.228
			c-0.018-0.143,0.084-0.273,0.227-0.291c1.092-0.134,2.021,0.112,2.765,0.731c2.268,1.89,2.574,7.076,2.898,12.566
			c0.395,6.689,0.843,14.272,4.973,16.722c8.658,5.135,14.348,13.502,14.495,21.316c0.076,4.02-1.44,7.239-4.268,9.064
			C205.051,187.251,205.002,187.264,204.953,187.264z"/>
		<path style="fill:#FF8B7B;" d="M131.484,196.699l-3.186,1.525l-7.668-1.685c-0.881-0.194-1.672-0.677-2.247-1.372l-1.679-2.033
			c-0.768-0.929-0.758-2.276,0.022-3.194l1.752-2.061c0.871-1.024,2.398-1.171,3.447-0.331l4.249,3.398
			C126.174,190.946,131.27,192.613,131.484,196.699z"/>
		<polygon style="fill:#FF8B7B;" points="158.863,410.669 152.827,410.677 151.81,387.994 161.974,388.243 		"/>
		<path style="fill:#263238;" d="M148.365,214.883c0,0-0.532,62.968-1.869,90.379c-0.04,0.819-0.032,1.627,0.027,2.445
			c1.985,27.475,5.278,80.28,5.278,80.28l10.229,0.261c0,0,8.917-42.166,3.394-80.369c8.87-43.201,13.651-81.748,5.615-92.996
			H148.365z"/>
		<path style="fill:#407BFF;" d="M150.799,384.815c0.102,1.628,0.377,5.609,0.693,6.823c0.044,0.168,0.171,0.301,0.333,0.364
			c4.755,1.854,9.52,1.573,9.905,0.659c0.319-0.756,1.215-5.742,1.537-7.572c0.061-0.345-0.212-0.651-0.562-0.631
			c-2.004,0.112-7.962,0.377-11.282-0.208C151.081,384.19,150.777,384.468,150.799,384.815z"/>
		<path style="opacity:0.2;" d="M165.505,239.892c-3.104,10.513-0.084,44.311,1.536,59.903c2.205-11.266,4.086-22.103,5.476-32.094
			L165.505,239.892z"/>
		<path style="fill:#263238;" d="M152.15,407.736l7.84-0.01c0.361,0,0.641,0.243,0.673,0.585l0.792,6.43
			c0.076,0.79-0.663,1.539-1.494,1.526c-3.453-0.053-5.107-0.249-9.466-0.243c-2.682,0.003-4.309,0.276-8.012,0.281
			c-3.622,0.004-3.714-3.553-2.155-3.877c6.99-1.453,7.892-2.258,10.321-4.162C151.085,407.922,151.622,407.737,152.15,407.736z"/>
		<path style="fill:#FF8B7B;" d="M151.333,163.494c-2.363-0.503-4.687,1.004-5.189,3.367l-0.005,0.024
			c-0.835,3.921-1.747,7.935-2.688,11.871c-0.934,3.947-1.991,7.859-3.161,11.641c-0.587,1.886-1.232,3.736-1.941,5.449
			c-0.358,0.831-0.729,1.67-1.115,2.34c-0.057,0.098-0.115,0.192-0.172,0.288c-0.601-0.241-1.271-0.622-1.961-1.029
			c-1.548-0.962-3.213-2.157-4.78-3.305l-0.113-0.083c-0.679-0.496-1.614-0.578-2.391-0.133c-1.054,0.604-1.42,1.947-0.816,3.001
			c1.134,1.98,2.371,3.748,3.987,5.449c0.804,0.857,1.699,1.662,2.845,2.449c0.587,0.384,1.238,0.754,2.099,1.063
			c0.849,0.288,1.979,0.578,3.465,0.294c0.727-0.146,1.497-0.47,2.132-0.917c0.318-0.221,0.605-0.467,0.855-0.72
			c0.157-0.155,0.166-0.181,0.242-0.265l0.184-0.217c0.519-0.597,0.876-1.138,1.244-1.69c0.704-1.088,1.224-2.12,1.742-3.159
			c0.978-2.062,1.762-4.096,2.494-6.128c1.454-4.059,2.583-8.129,3.666-12.199c0.545-2.033,1.019-4.08,1.48-6.128
			c0.464-2.056,0.901-4.08,1.29-6.196C155.148,166.245,153.653,163.989,151.333,163.494z"/>
		<path style="fill:#263238;" d="M145.228,206.334c0.02,2.572,40.065,3.077,40.065-0.319l-20.47-5.225L145.228,206.334"/>
		<path style="fill:#FF8B7B;" d="M152.585,161.803c10.647-1.822,21.273-1.601,31.882,0.316c2.608,0.412,4.328,2.938,3.752,5.515
			c-5.663,25.367-5.342,33.889-4.791,47.249h-35.06c-1.756-22.28-2.68-34.996-2.917-42.223
			C145.271,167.157,147.138,162.606,152.585,161.803z"/>
		<path style="opacity:0.2;" d="M184.366,169.173c-0.366,2.268,0.293,7.566,1.38,10.451c0.449-2.414,0.972-5.006,1.568-7.838
			L184.366,169.173z"/>
		<path style="fill:#FF8B7B;" d="M172.959,143.282c-0.995,5.077-1.989,14.38,1.563,17.768c0,0-1.388,5.15-10.822,5.15
			c-10.374,0-4.958-5.15-4.958-5.15c5.662-1.352,5.516-5.553,4.529-9.497L172.959,143.282z"/>
		<path style="opacity:0.2;" d="M169.01,146.657l-5.733,4.892c0.237,0.934,0.421,1.88,0.487,2.801
			c2.163-0.313,5.134-2.687,5.364-4.952C169.242,148.268,169.194,147.183,169.01,146.657z"/>
		<path style="fill:#FF8B7B;" d="M154.54,136.757c2.465,8.126,3.334,11.618,8.504,14.862c7.777,4.879,17.219,0.075,17.232-8.624
			c0.012-7.83-4.021-19.804-12.872-21.169C158.684,120.481,152.076,128.63,154.54,136.757z"/>
		<path style="fill:#263238;" d="M155.428,142.411c3.948,0.29,5.632-6.06,3.716-9.562
			C157.228,129.347,150.145,136.43,155.428,142.411z"/>
		<path style="fill:#263238;" d="M153.266,128.291c12.483,6.702,19.973-5.839,26.548,0.815
			C176.596,119.84,158.941,115.885,153.266,128.291z"/>
		<path style="fill:#FFFFFF;" d="M175.367,142.032c0,0-2.669-0.66-10.225-1.103c0.809,1.895,2.398,3.496,6.269,3.693
			C175.282,144.82,175.367,142.032,175.367,142.032z"/>
		<polygon style="fill:#FF8B7B;" points="218.151,395.719 212.096,397.566 203.273,379.066 212.58,376.519 		"/>
		<path style="fill:#263238;" d="M210.789,397.011l6.626-4.025c0.259-0.157,0.586-0.104,0.786,0.129l4.449,5.174
			c0.462,0.537,0.316,1.398-0.289,1.75c-2.512,1.463-3.037,1.683-6.107,3.686c-1.888,1.232-4.52,4.569-7.128,6.271
			c-2.551,1.665-4.376-0.636-3.608-1.738c3.105-4.455,4.137-7.937,4.497-10.186C210.087,397.626,210.417,397.254,210.789,397.011z"
			/>
		<path style="fill:#263238;" d="M157.982,214.883c0,0,12.89,65.91,17.748,92.003c5.053,27.14,27.538,72.181,27.538,72.181
			l9.336-2.556c0,0-12.783-48.137-18.745-71.995c-1.161-43.201,0.217-78.385-10.43-89.634
			C171.737,214.883,157.982,214.883,157.982,214.883z"/>
		<path style="fill:#407BFF;" d="M200.02,374.097c0.712,1.467,2.479,5.046,3.232,6.049c0.104,0.139,0.272,0.213,0.446,0.21
			c5.103-0.09,9.404-2.159,9.414-3.151c0.008-0.821-1.056-5.773-1.453-7.589c-0.075-0.342-0.443-0.522-0.759-0.371
			c-1.812,0.865-7.222,3.372-10.516,4.091C200.043,373.411,199.868,373.784,200.02,374.097z"/>
		<path style="fill:#263238;" d="M168.212,135.824c0.16,0.671,0.644,1.131,1.083,1.027c0.439-0.104,0.665-0.733,0.506-1.404
			c-0.159-0.671-0.645-1.131-1.083-1.027C168.279,134.523,168.052,135.152,168.212,135.824z"/>
		<path style="fill:#263238;" d="M175.802,134.022c0.159,0.671,0.645,1.131,1.083,1.027c0.439-0.104,0.666-0.733,0.506-1.405
			c-0.159-0.671-0.645-1.131-1.083-1.027S175.642,133.35,175.802,134.022z"/>
		<path style="fill:#263238;" d="M176.123,132.7l1.502-0.848C177.625,131.852,177.097,133.309,176.123,132.7z"/>
		<path style="fill:#FF5652;" d="M173.749,135.787c0,0,1.826,2.62,3.411,3.717c-0.69,1.038-2.287,1.018-2.287,1.018L173.749,135.787
			z"/>
		<path style="fill:#FF8B7B;" d="M153.81,143.945c0.969,1.47,2.526,2.356,3.947,2.624c2.138,0.404,3.022-1.554,2.272-3.474
			c-0.675-1.729-2.601-4.023-4.672-3.558C153.316,139.995,152.703,142.264,153.81,143.945z"/>
		<path style="fill:#263238;" d="M152.38,128.291c3.919-5.911,9.319-2.05,10.277-0.657c0.958,1.394-9.7,11.721-5.138,21.772
			C152.119,146.657,147.765,137.169,152.38,128.291z"/>
		<path style="fill:#263238;" d="M165.082,135.184c0.167-0.037,0.298-0.178,0.314-0.357c0.176-1.867,2.261-3.083,2.282-3.095
			c0.194-0.111,0.261-0.359,0.15-0.553c-0.111-0.194-0.358-0.262-0.553-0.15c-0.101,0.058-2.472,1.442-2.686,3.722
			c-0.021,0.223,0.143,0.421,0.366,0.441C164.999,135.196,165.042,135.193,165.082,135.184z"/>
		<path style="fill:#263238;" d="M177.899,129.919c0.137,0.017,0.28-0.037,0.371-0.154c0.137-0.177,0.105-0.432-0.072-0.569
			c-1.771-1.374-3.547-0.783-3.621-0.757c-0.212,0.073-0.324,0.304-0.25,0.516c0.073,0.21,0.302,0.323,0.514,0.251l0,0
			c0.059-0.02,1.447-0.467,2.861,0.63C177.76,129.883,177.829,129.91,177.899,129.919z"/>
		<path style="fill:#FF8B7B;" d="M202.895,191.848c-0.015-0.26-0.047-0.541-0.091-0.824l-0.085-0.441l-0.073-0.304
			c-0.094-0.363-0.184-0.749-0.293-1.08c-0.838-2.743-1.941-4.991-3.092-7.227c-1.145-2.222-2.395-4.332-3.679-6.406
			c-2.569-4.16-5.269-8.101-8.248-11.998c-1.433-1.87-4.106-2.279-6.031-0.893c-1.961,1.411-2.405,4.145-0.994,6.105l0.037,0.051
			c2.675,3.716,5.394,7.565,7.94,11.391c1.263,1.926,2.48,3.867,3.626,5.798c1.116,1.923,2.193,3.912,2.868,5.669
			c0.095,0.226,0.145,0.417,0.219,0.622l0.043,0.124l0.006-0.006c0.004,0.009,0.016,0.022,0.022,0.057
			c0.032,0.138,0.047,0.452,0.003,0.831c-0.075,0.77-0.309,1.743-0.626,2.721c-0.65,1.972-1.536,4.054-2.525,6.096
			c-0.965,2.064-2.029,4.123-3.154,6.158c-1.098,2.044-2.27,4.1-3.411,6.103l-0.029,0.049c-0.496,0.869-0.339,1.995,0.433,2.692
			c0.893,0.805,2.269,0.735,3.074-0.157c3.282-3.634,6.185-7.456,8.895-11.604c1.313-2.1,2.588-4.254,3.636-6.712
			c0.521-1.237,1.009-2.536,1.327-4.106C202.846,193.769,202.952,192.893,202.895,191.848z"/>
		<path style="fill:#263238;" d="M168.533,134.503l1.502-0.848C170.035,133.655,169.507,135.111,168.533,134.503z"/>
		<path style="fill:#407BFF;" d="M146.435,170.163c1.132-4.533,2.488-7.743,2.488-7.743s2.747-0.821,4.908-1.038
			c0.987,0.885,5.373,4.819,8.186,10.639c4.488-4.528,13.063-9.115,18.289-10.79c2.643-0.262,5.278,0.659,5.278,0.659
			c-3.56,11.244-7.198,22.556-0.754,25.459c-0.107,5.342,0.198,11.96,0.463,18.666c-6.096-0.668-30.257-1.829-40.065,0.319
			c-0.503-6.79-0.686-12.579-0.652-17.504C139.955,182.994,144.537,175.074,146.435,170.163z"/>
		<g>
			<path style="fill:#FFFFFF;" d="M174.708,167.124c-1.114-0.503-2.315-1.077-3.54-1.726c-0.178,0.101-0.356,0.203-0.534,0.306
				c1.336,0.719,2.649,1.351,3.86,1.897c0.88,0.397,1.771,0.787,2.664,1.179c1.871,0.82,3.757,1.657,5.593,2.569
				c0.045-0.171,0.091-0.343,0.137-0.515c-1.815-0.898-3.676-1.724-5.521-2.533C176.475,167.911,175.586,167.521,174.708,167.124z"
				/>
			<path style="fill:#FFFFFF;" d="M166.667,184.434c-2.949-2.025-5.998-4.12-9.07-6.05c-3.565-2.24-7.711-4.566-12.196-5.732
				c-0.069,0.162-0.137,0.32-0.207,0.485c4.446,1.141,8.575,3.458,12.125,5.689c3.063,1.925,6.108,4.017,9.053,6.039
				c5.896,4.05,11.974,8.217,18.551,11.302c-0.006-0.196-0.01-0.384-0.016-0.579C178.456,192.531,172.475,188.423,166.667,184.434z"
				/>
			<path style="fill:#FFFFFF;" d="M184.81,189.739c0-0.191,0-0.381,0.001-0.569c-0.305-0.131-0.606-0.264-0.911-0.395
				c-13.039-5.605-26.496-11.406-36.764-21.181c-0.055,0.185-0.109,0.374-0.164,0.567c10.31,9.725,23.724,15.506,36.722,21.094
				C184.067,189.416,184.437,189.579,184.81,189.739z"/>
			<path style="fill:#FFFFFF;" d="M169.722,170.481c3.809,2.477,7.711,5.007,11.727,7.328c0.021-0.185,0.047-0.373,0.073-0.561
				c-3.939-2.285-7.771-4.77-11.516-7.205c-1.022-0.665-2.054-1.333-3.088-2.001c-0.156,0.107-0.31,0.215-0.463,0.323
				C167.55,169.071,168.641,169.778,169.722,170.481z"/>
			<path style="fill:#FFFFFF;" d="M153.915,197.032c-3.782-1.894-6.897-4.027-9.341-6.377c0.001,0.237,0.004,0.484,0.006,0.726
				c2.424,2.249,5.459,4.295,9.1,6.118c2.676,1.341,5.488,2.503,8.207,3.627c3.015,1.246,6.108,2.545,9.049,4.082
				c0.4,0.011,0.794,0.023,1.187,0.036c-3.238-1.776-6.688-3.217-10.037-4.601C159.377,199.522,156.574,198.364,153.915,197.032z"/>
			<path style="fill:#FFFFFF;" d="M154.66,205.29c-3.696-1.791-7.165-4-9.897-6.906c0.011,0.269,0.021,0.533,0.034,0.806
				c2.503,2.531,5.562,4.511,8.813,6.158C153.956,205.327,154.305,205.307,154.66,205.29z"/>
			<path style="fill:#FFFFFF;" d="M182.378,197.117c-4.465-2.298-9.224-4.206-13.825-6.05c-7.398-2.965-15.049-6.031-21.566-10.776
				c-1.08-0.786-2.3-1.748-3.42-2.899c-0.061,0.189-0.125,0.376-0.181,0.566c1.09,1.088,2.256,2,3.293,2.756
				c6.57,4.784,14.251,7.862,21.68,10.839c4.59,1.84,9.337,3.742,13.78,6.029c0.942,0.485,1.942,1.043,2.89,1.693
				c-0.008-0.214-0.017-0.432-0.024-0.646C184.133,198.057,183.233,197.557,182.378,197.117z"/>
			<path style="fill:#FFFFFF;" d="M159.048,193.968c-4.63-3.15-9.419-6.408-14.362-9.231c-0.649-0.371-1.342-0.743-2.062-1.042
				c0.015,0.197,0.026,0.393,0.052,0.589c0.607,0.269,1.195,0.59,1.751,0.908c4.926,2.812,9.705,6.064,14.327,9.209
				c5.647,3.842,11.479,7.797,17.646,11.01c0.426,0.02,0.842,0.04,1.25,0.061C171.135,202.188,164.991,198.012,159.048,193.968z"/>
		</g>
		<path style="fill:#FF8B7B;" d="M191.073,213.398l-3.237-1.413l-7.605,1.951c-0.874,0.224-1.648,0.735-2.198,1.45l-1.608,2.09
			c-0.735,0.956-0.679,2.301,0.134,3.192l1.823,1.999c0.906,0.993,2.437,1.087,3.457,0.211l4.128-3.544
			C185.966,219.332,190.918,216.951,191.073,213.398z"/>
		<path style="fill:#407BFF;" d="M185.968,212.169c0.136,1.762,1.195,4.741,2.763,6.004c0.881-0.285,1.621-1.664,1.621-1.664
			s-2.503-2.2-2.932-6.038C186.461,211.008,185.968,212.169,185.968,212.169z"/>
		<path style="fill:#FF8B7B;" d="M131.255,195.52c0.891-3.516-2.579-5.151-4.112-9.468c-0.569-1.603-1.667-0.791-1.731,0.951
			c-0.099,2.668,1.338,6.092,1.338,6.092L131.255,195.52z"/>
		<path style="fill:#407BFF;" d="M128.806,192.96l-5.795,1.218c-0.609,0.128-1.344-0.238-1.633-0.814l-6.948-13.842
			c-0.289-0.576-0.027-1.151,0.583-1.279l5.795-1.218c0.609-0.128,1.344,0.238,1.633,0.813l6.948,13.842
			C129.677,192.256,129.415,192.832,128.806,192.96z"/>
		<path style="fill:#407BFF;" d="M121.696,174.32c-0.007,0-0.013,0-0.02-0.001c-0.144-0.011-0.252-0.137-0.241-0.28l0.154-1.986
			c0.011-0.144,0.142-0.259,0.28-0.24c0.144,0.011,0.252,0.137,0.241,0.28l-0.154,1.986
			C121.946,174.216,121.831,174.32,121.696,174.32z"/>
		<path style="fill:#407BFF;" d="M123.723,175.09c-0.067,0-0.134-0.025-0.185-0.077c-0.102-0.102-0.102-0.267,0-0.369l3.526-3.526
			c0.102-0.103,0.268-0.103,0.37,0c0.102,0.102,0.102,0.267,0,0.369l-3.526,3.526C123.857,175.065,123.79,175.09,123.723,175.09z"/>
		<path style="fill:#407BFF;" d="M124.51,177.112c-0.121,0-0.23-0.085-0.256-0.208c-0.029-0.142,0.062-0.28,0.203-0.309l3.636-0.753
			c0.142-0.028,0.279,0.062,0.309,0.203c0.029,0.142-0.062,0.28-0.203,0.309l-3.636,0.753
			C124.546,177.111,124.528,177.112,124.51,177.112z"/>
		<path style="fill:#263238;" d="M128.173,193.934l-5.795,1.218c-0.609,0.128-1.344-0.238-1.633-0.814l-6.948-13.842
			c-0.289-0.576-0.027-1.151,0.583-1.279l5.795-1.218c0.609-0.128,1.344,0.238,1.633,0.814l6.948,13.842
			C129.045,193.23,128.783,193.806,128.173,193.934z"/>
		<path style="fill:#FF8B7B;" d="M116.726,189.94c0.356-0.419,0.765-0.907,1.146-1.363c0.647-0.776,1.861-0.693,2.401,0.161
			l1.971,3.122c0.817,1.293,0.833,2.937,0.043,4.246l-0.169,0.28L116.726,189.94z"/>
	</g>
</g>
<g id="Online_Order">
	<g>
		<path style="fill:#407BFF;" d="M62.244,98.274l-0.879-0.565c3.566-5.548,8.447-10.26,14.114-13.626l0.534,0.898
			C70.484,88.265,65.723,92.861,62.244,98.274z"/>
		<path style="fill:#407BFF;" d="M56.287,113.609l-1.03-0.176c0.523-3.063,1.387-6.074,2.571-8.947l0.966,0.397
			C57.64,107.686,56.797,110.622,56.287,113.609z"/>
		<path style="fill:#407BFF;" d="M135.846,120.588c0-21.41-17.357-38.767-38.767-38.767c-21.411,0-38.767,17.357-38.767,38.767
			s17.356,38.767,38.767,38.767c1.727,0,3.424-0.124,5.091-0.343l13.69,10.303l3.042-16.686
			C129.129,145.649,135.846,133.904,135.846,120.588z"/>
		<g>
			<g>
				<path style="fill:#FFFFFF;" d="M86.148,133.105c-0.285,0-0.54-0.188-0.622-0.466l-6.871-23.394
					c-0.055-0.186-0.023-0.387,0.086-0.547c0.109-0.16,0.284-0.264,0.478-0.281l34.794-3.169c0.19-0.015,0.376,0.049,0.512,0.182
					c0.136,0.132,0.207,0.318,0.194,0.507l-1.592,24.165c-0.021,0.318-0.271,0.574-0.588,0.604l-26.33,2.397
					C86.188,133.105,86.168,133.105,86.148,133.105z M80.122,109.637l6.499,22.125l25.247-2.299l1.506-22.854L80.122,109.637z
					 M112.479,130.06h0.01H112.479z"/>
				<path style="fill:#FFFFFF;" d="M79.278,109.711c-0.198,0-0.394-0.09-0.521-0.262l-2.785-3.754l-5.384,0.491
					c-0.355,0.021-0.672-0.23-0.705-0.587c-0.032-0.356,0.23-0.672,0.587-0.705l5.747-0.523c0.227-0.017,0.445,0.078,0.58,0.26
					l3.002,4.046c0.213,0.288,0.153,0.694-0.134,0.907C79.548,109.67,79.412,109.711,79.278,109.711z"/>
				<path style="fill:#FFFFFF;" d="M90.613,142.697c-1.671,0-3.101-1.279-3.255-2.975c-0.164-1.796,1.165-3.391,2.961-3.555
					c1.794-0.156,3.391,1.164,3.554,2.961l0,0c0.164,1.796-1.165,3.391-2.961,3.555C90.811,142.692,90.711,142.697,90.613,142.697z
					 M90.617,137.451c-0.06,0-0.12,0.002-0.181,0.008c-1.084,0.099-1.886,1.061-1.787,2.146c0.099,1.084,1.057,1.888,2.145,1.787
					c1.084-0.099,1.886-1.061,1.787-2.145l0,0C92.488,138.222,91.625,137.451,90.617,137.451z"/>
				<path style="fill:#FFFFFF;" d="M108.398,141.077c-0.763,0-1.495-0.264-2.088-0.758c-0.671-0.56-1.085-1.347-1.164-2.217
					c-0.08-0.87,0.185-1.719,0.744-2.39s1.347-1.084,2.217-1.164c1.798-0.153,3.391,1.165,3.554,2.961l0,0
					c0.164,1.796-1.165,3.391-2.961,3.555C108.599,141.073,108.498,141.077,108.398,141.077z M108.405,135.831
					c-0.06,0-0.12,0.002-0.18,0.008c-0.525,0.048-1.001,0.297-1.338,0.702c-0.338,0.405-0.497,0.917-0.449,1.442
					c0.048,0.525,0.297,1.001,0.703,1.338c0.405,0.338,0.918,0.499,1.443,0.449c1.084-0.099,1.886-1.061,1.787-2.145l0,0
					C110.277,136.602,109.414,135.831,108.405,135.831z"/>
			</g>
			<path style="fill:#FFFFFF;" d="M95.918,126.164c-0.362,0-0.725-0.122-1.025-0.372l-5.671-4.725
				c-0.68-0.566-0.772-1.577-0.205-2.256c0.566-0.681,1.577-0.772,2.257-0.205l4.44,3.699l9.142-10.974
				c0.566-0.68,1.577-0.772,2.257-0.205c0.68,0.566,0.772,1.577,0.206,2.257L97.15,125.587
				C96.833,125.968,96.377,126.164,95.918,126.164z"/>
		</g>
	</g>
</g>
</svg>
